<svg version="1.1" id="Layer_1" xmlns="http://www.w3.org/2000/svg" xmlns:xlink="http://www.w3.org/1999/xlink" x="0px" y="0px"
	 width="100%" viewBox="0 0 500 500" enable-background="new 0 0 500 500" xml:space="preserve">
<path fill="#000000" opacity="1.000000" stroke="none" 
	d="
M343.000000,501.000000 
	C228.666687,501.000000 114.833389,501.000000 1.000061,501.000000 
	C1.000041,334.333405 1.000041,167.666794 1.000020,1.000151 
	C167.666565,1.000100 334.333130,1.000100 500.999756,1.000050 
	C500.999847,167.666519 500.999847,334.333038 500.999939,500.999786 
	C448.500000,501.000000 396.000000,501.000000 343.000000,501.000000 
M201.098587,391.401306 
	C213.916412,404.222351 226.734238,417.043396 238.799866,429.112030 
	C298.692017,369.417725 358.341980,309.964844 417.482452,251.019730 
	C358.262268,191.799408 298.798370,132.335388 240.299362,73.836288 
	C180.976852,132.902130 121.302345,192.318436 61.513191,251.848877 
	C107.743996,298.068756 154.171265,344.485046 201.098587,391.401306 
z"/>
<path fill="#00AAE9" opacity="1.000000" stroke="none" 
	d="
M200.848572,391.151337 
	C154.171265,344.485046 107.743996,298.068756 61.513191,251.848877 
	C121.302345,192.318436 180.976852,132.902130 240.299362,73.836288 
	C298.798370,132.335388 358.262268,191.799408 417.482452,251.019730 
	C358.341980,309.964844 298.692017,369.417725 238.799866,429.112030 
	C226.734238,417.043396 213.916412,404.222351 200.848572,391.151337 
M382.112488,266.612549 
	C387.288025,261.540680 392.463562,256.468811 396.657623,252.358780 
	C343.638855,199.338593 291.280151,146.978516 239.472641,95.169632 
	C187.726212,146.914413 135.436874,199.202103 83.612320,251.025009 
	C135.648651,303.063721 188.011154,355.428619 240.656708,408.076569 
	C287.389618,361.340881 334.501038,314.226654 382.112488,266.612549 
z"/>
<path fill="#000001" opacity="1.000000" stroke="none" 
	d="
M381.862488,266.862488 
	C334.501038,314.226654 287.389618,361.340881 240.656708,408.076569 
	C188.011154,355.428619 135.648651,303.063721 83.612320,251.025009 
	C135.436874,199.202103 187.726212,146.914413 239.472641,95.169632 
	C291.280151,146.978516 343.638855,199.338593 396.657623,252.358780 
	C392.463562,256.468811 387.288025,261.540680 381.862488,266.862488 
M201.709015,261.499268 
	C201.709015,276.252838 201.709015,291.006409 201.709015,305.748352 
	C207.145050,305.748352 211.913406,305.748352 217.089539,305.748352 
	C217.089539,293.707764 217.039017,281.918762 217.145813,270.131195 
	C217.161240,268.428894 217.396210,266.215881 218.448242,265.125702 
	C222.712601,260.706696 227.335663,256.633820 232.068024,252.207230 
	C232.793243,253.125687 233.919815,254.510437 235.001801,255.929184 
	C246.917374,271.553528 258.809479,287.195862 270.768036,302.787170 
	C271.720703,304.029266 273.069000,305.766571 274.320587,305.842865 
	C279.823151,306.178040 285.357727,305.987488 291.734528,305.987488 
	C274.691895,283.561371 258.380005,262.096863 241.872894,240.375443 
	C257.026581,223.344803 272.122192,206.379471 288.117554,188.402924 
	C282.672241,188.402924 278.547424,188.650024 274.467133,188.329971 
	C270.754608,188.038773 268.358795,189.420227 265.926727,192.168930 
	C251.135223,208.886093 236.142746,225.425354 221.247177,242.050735 
	C220.178360,243.243652 219.347046,244.649384 218.405304,245.956161 
	C217.990555,245.692108 217.575790,245.428055 217.161041,245.164017 
	C217.161041,226.442627 217.161041,207.721222 217.161041,188.757675 
	C211.833633,188.757675 206.963150,188.757675 201.709030,188.757675 
	C201.709030,212.906677 201.709030,236.702957 201.709015,261.499268 
z"/>
<path fill="#00ACEC" opacity="1.000000" stroke="none" 
	d="
M201.709015,260.999268 
	C201.709030,236.702957 201.709030,212.906677 201.709030,188.757675 
	C206.963150,188.757675 211.833633,188.757675 217.161041,188.757675 
	C217.161041,207.721222 217.161041,226.442627 217.161041,245.164017 
	C217.575790,245.428055 217.990555,245.692108 218.405304,245.956161 
	C219.347046,244.649384 220.178360,243.243652 221.247177,242.050735 
	C236.142746,225.425354 251.135223,208.886093 265.926727,192.168930 
	C268.358795,189.420227 270.754608,188.038773 274.467133,188.329971 
	C278.547424,188.650024 282.672241,188.402924 288.117554,188.402924 
	C272.122192,206.379471 257.026581,223.344803 241.872894,240.375443 
	C258.380005,262.096863 274.691895,283.561371 291.734528,305.987488 
	C285.357727,305.987488 279.823151,306.178040 274.320587,305.842865 
	C273.069000,305.766571 271.720703,304.029266 270.768036,302.787170 
	C258.809479,287.195862 246.917374,271.553528 235.001801,255.929184 
	C233.919815,254.510437 232.793243,253.125687 232.068024,252.207230 
	C227.335663,256.633820 222.712601,260.706696 218.448242,265.125702 
	C217.396210,266.215881 217.161240,268.428894 217.145813,270.131195 
	C217.039017,281.918762 217.089539,293.707764 217.089539,305.748352 
	C211.913406,305.748352 207.145050,305.748352 201.709015,305.748352 
	C201.709015,291.006409 201.709015,276.252838 201.709015,260.999268 
z"/>
</svg>